<svg width="115" height="31" viewBox="0 0 115 31" fill="none" xmlns="http://www.w3.org/2000/svg">
<path d="M25.4682 13.8365C24.0922 13.0119 22.6254 12.4064 21.0677 12.02C19.51 11.6077 17.6408 11.3243 15.4601 11.1697C15.2783 11.1439 15.0966 11.131 14.9149 11.131C14.7591 11.1052 14.6033 11.0924 14.4476 11.0924C13.9024 11.0924 13.6298 11.3114 13.6298 11.7494C13.6298 12.0071 13.7726 12.1874 14.0581 12.2905C14.3697 12.3678 14.7851 12.4322 15.3043 12.4837C16.3168 12.6126 17.3812 12.7672 18.4975 12.9475C19.6139 13.1021 20.7043 13.3469 21.7687 13.6819C22.8331 14.0168 23.7937 14.5064 24.6504 15.1505C25.5331 15.7947 26.2211 16.645 26.7144 17.7014C27.2336 18.7578 27.4932 20.0848 27.4932 21.6823C27.4932 23.4602 27.0778 24.9546 26.247 26.1656C25.4163 27.3509 24.287 28.3042 22.8591 29.0257C21.4572 29.7214 19.8475 30.2238 18.0302 30.533C16.2389 30.8422 14.3827 30.9968 12.4615 30.9968C10.2288 31.0225 8.00911 30.8937 5.80239 30.6103C3.62162 30.3526 1.6875 30.0177 0 29.6054L1.09038 16.0008C1.6875 16.4389 2.40144 16.9155 3.2322 17.4309C4.06297 17.9204 5.19229 18.3713 6.62018 18.7836C8.04806 19.1958 9.93026 19.5179 12.2668 19.7498C12.3966 19.7756 12.5134 19.7885 12.6173 19.7885C12.7471 19.7885 12.8639 19.7885 12.9678 19.7885C13.2533 19.7885 13.461 19.7498 13.5908 19.6725C13.7466 19.5952 13.8245 19.4277 13.8245 19.1701C13.8245 18.8867 13.6947 18.7063 13.4351 18.629C13.2014 18.5517 12.825 18.4744 12.3057 18.3971C10.9038 18.2425 9.5019 18.0235 8.09998 17.7401C6.72402 17.4566 5.46489 17.0186 4.32258 16.426C3.18028 15.8334 2.25865 15.0088 1.55769 13.9524C0.88269 12.896 0.545191 11.5175 0.545191 9.81694C0.545191 7.39491 1.11634 5.47532 2.25865 4.05818C3.42691 2.61527 4.99758 1.58462 6.97065 0.966233C8.94373 0.322078 11.1505 0 13.5908 0C15.6418 0 17.7836 0.193246 20.0163 0.579739C22.249 0.940467 24.4557 1.44291 26.6365 2.08706L25.4682 13.8365Z" fill="#E6DDB9"/>
<path d="M41.844 0.618388V18.5517H53.7603V30.9968H29.5772V0.618388H41.844Z" fill="#E6DDB9"/>
<path d="M84.2192 22.3393C83.8038 25.0448 82.363 27.1705 79.8966 28.7165C77.4303 30.2367 74.1981 30.9968 70.2 30.9968C66.202 30.9968 62.9697 30.2367 60.5034 28.7165C58.063 27.1963 56.6222 25.0963 56.1808 22.4166C56.077 21.6952 55.9861 20.7289 55.9082 19.5179C55.8563 18.2811 55.8303 16.9542 55.8303 15.537C55.8303 14.1714 55.8563 12.9089 55.9082 11.7494C55.9861 10.5642 56.077 9.63657 56.1808 8.96665C56.6222 6.13236 58.076 3.92935 60.5424 2.35761C63.0087 0.785871 66.2279 0 70.2 0C74.1981 0 77.4303 0.785871 79.8966 2.35761C82.363 3.90359 83.8038 6.05507 84.2192 8.81205C84.3231 9.48198 84.4009 10.4096 84.4529 11.5948C84.5307 12.7543 84.5697 14.0297 84.5697 15.4211C84.5697 16.8898 84.5307 18.2296 84.4529 19.4406C84.4009 20.6516 84.3231 21.6179 84.2192 22.3393Z" fill="#E6DDB9"/>
<path d="M98.5274 30.9968H86.9616L86.9613 0H100.63L109.598 22.3393L103.434 0H115L115 30.9968H102.383L92.7006 6.70929L98.5274 30.9968Z" fill="#E6DDB9"/>
<ellipse cx="7.75069" cy="7.78261" rx="7.75069" ry="7.78261" transform="matrix(-0.0141459 0.9999 -0.999902 -0.0140301 78.0386 7.96832)" fill="#222B20"/>
</svg>
